<?xml version="1.0" encoding="UTF-8" standalone="no"?>
<!DOCTYPE svg PUBLIC "-//W3C//DTD SVG 1.1//EN" "http://www.w3.org/Graphics/SVG/1.1/DTD/svg11.dtd">
<svg width="100%" height="100%" viewBox="0 0 121 50" version="1.1" xmlns="http://www.w3.org/2000/svg" xmlns:xlink="http://www.w3.org/1999/xlink" xml:space="preserve" xmlns:serif="http://www.serif.com/" style="fill-rule:evenodd;clip-rule:evenodd;stroke-linejoin:round;stroke-miterlimit:2;">
    <g transform="matrix(1,0,0,1,-1180,-1138.2)">
        <g transform="matrix(2.69095,0,0,4.819,162.097,298.01)">
            <g transform="matrix(0.371616,0,0,0.207512,124.495,-55.6175)">
                <path d="M682.892,1148.88L682.917,1148.43L682.997,1147.12L683.079,1145.86L683.164,1144.66L683.252,1143.51L683.343,1142.41L683.436,1141.35L683.532,1140.33L683.631,1139.35L683.733,1138.4L683.837,1137.5L683.944,1136.62L684.054,1135.78L684.166,1134.96L684.282,1134.17L684.4,1133.41L684.52,1132.68L684.644,1131.97L684.77,1131.28L684.9,1130.62L685.032,1129.97L685.168,1129.35L685.306,1128.74L685.447,1128.16L685.592,1127.59L685.891,1126.5L686.203,1125.47L686.528,1124.5L686.869,1123.57L687.224,1122.7L687.595,1121.87L687.984,1121.09L688.389,1120.34L688.814,1119.63L689.258,1118.95L689.723,1118.31L690.211,1117.69L690.722,1117.1L691.259,1116.54L691.823,1116L692.416,1115.49L693.04,1114.99L693.698,1114.52L694.392,1114.07L695.126,1113.64L695.902,1113.23L696.724,1112.83L697.597,1112.45L698.525,1112.09L699.513,1111.74L700.032,1111.57L700.567,1111.41L701.121,1111.25L701.694,1111.09L702.288,1110.94L702.902,1110.79L703.539,1110.64L704.199,1110.5L704.885,1110.37L705.596,1110.23L706.335,1110.1L707.104,1109.97L707.904,1109.85L708.738,1109.73L709.606,1109.61L710.512,1109.5L711.458,1109.39L712.447,1109.28L713.481,1109.18L714.565,1109.09L715.7,1108.99L716.892,1108.9L718.145,1108.82L719.463,1108.74L720.148,1108.7L721.573,1108.62L723.078,1108.56L723.862,1108.52L725.499,1108.46L727.234,1108.41L728.141,1108.38L729.076,1108.36L731.035,1108.31L733.122,1108.28L734.218,1108.26L735.352,1108.25L736.524,1108.24L737.738,1108.23L738.994,1108.22L741.648,1108.21L743.05,1108.21L744.452,1108.21L747.105,1108.22L748.362,1108.23L749.576,1108.24L750.748,1108.25L751.881,1108.26L752.977,1108.28L755.065,1108.31L757.024,1108.36L757.959,1108.38L759.746,1108.43L760.6,1108.46L762.237,1108.52L763.785,1108.59L765.249,1108.66L765.952,1108.7L766.637,1108.74L767.955,1108.82L769.207,1108.9L770.399,1108.99L771.535,1109.09L772.618,1109.18L773.653,1109.28L774.641,1109.39L775.588,1109.5L776.494,1109.61L777.362,1109.73L778.195,1109.85L778.996,1109.97L779.764,1110.1L780.504,1110.23L781.215,1110.37L781.9,1110.5L782.561,1110.64L783.198,1110.79L783.812,1110.94L784.405,1111.09L784.978,1111.25L785.532,1111.41L786.068,1111.57L786.587,1111.74L787.575,1112.09L788.502,1112.45L789.375,1112.83L790.198,1113.23L790.974,1113.64L791.707,1114.07L792.402,1114.52L793.06,1114.99L793.684,1115.49L794.277,1116L794.841,1116.54L795.378,1117.1L795.889,1117.69L796.377,1118.31L796.842,1118.95L797.286,1119.63L797.71,1120.34L798.116,1121.09L798.504,1121.87L798.876,1122.7L799.231,1123.57L799.571,1124.5L799.897,1125.47L800.209,1126.5L800.508,1127.59L800.652,1128.16L800.794,1128.74L800.932,1129.35L801.068,1129.97L801.2,1130.62L801.329,1131.28L801.456,1131.97L801.579,1132.68L801.7,1133.41L801.818,1134.17L801.933,1134.96L802.046,1135.78L802.156,1136.62L802.263,1137.5L802.367,1138.4L802.468,1139.35L802.567,1140.33L802.663,1141.35L802.757,1142.41L802.848,1143.51L802.935,1144.66L803.021,1145.86L803.103,1147.12L803.182,1148.43L803.208,1148.88C786.776,1154.26 765.84,1157.48 743.05,1157.48C720.261,1157.48 699.324,1154.26 682.892,1148.88Z" style="fill:rgb(245,172,0);fill-rule:nonzero;"/>
            </g>
        </g>
    </g>
</svg>
