<?xml version="1.0" encoding="UTF-8" standalone="no"?>
<!DOCTYPE svg PUBLIC "-//W3C//DTD SVG 1.1//EN" "http://www.w3.org/Graphics/SVG/1.1/DTD/svg11.dtd">
<svg width="100%" height="100%" viewBox="0 0 58 56" version="1.1" xmlns="http://www.w3.org/2000/svg" xmlns:xlink="http://www.w3.org/1999/xlink" xml:space="preserve" xmlns:serif="http://www.serif.com/" style="fill-rule:evenodd;clip-rule:evenodd;stroke-linejoin:round;stroke-miterlimit:2;">
    <g id="Artboard1" transform="matrix(1.03577,0,0,1.03765,0,0)">
        <rect x="0" y="0" width="55.906" height="53.123" style="fill:none;"/>
        <g transform="matrix(0.965461,0,0,0.963717,0,0)">
            <path d="M57.152,43.823C57.152,38.687 53.454,34.294 48.397,33.456C39.022,31.878 23.881,29.353 13.247,27.576C10.136,27.049 6.952,27.935 4.544,29.981C2.136,32.027 0.753,35.03 0.753,38.189L0.753,43.601C0.753,46.461 1.886,49.201 3.901,51.211C5.903,53.232 8.633,54.369 11.482,54.369C11.482,54.369 46.645,54.369 46.645,54.369C52.441,54.369 57.152,49.641 57.152,43.823ZM11.5,30.252L11.279,30.263C9.494,30.308 7.755,30.955 6.366,32.133C4.592,33.641 3.576,35.864 3.576,38.189L3.576,43.601C3.576,45.71 4.412,47.729 5.892,49.214C7.371,50.699 9.382,51.538 11.482,51.538L46.645,51.538C50.888,51.538 54.33,48.083 54.33,43.823C54.33,40.063 51.622,36.857 47.944,36.245C38.556,34.679 23.415,32.142 12.783,30.365C12.356,30.298 11.928,30.252 11.5,30.252ZM10.376,45.894L47.646,45.894C48.422,45.894 49.058,45.257 49.058,44.478C49.058,43.699 48.422,43.063 47.646,43.063L10.376,43.063C9.6,43.063 8.965,43.699 8.965,44.478C8.965,45.257 9.6,45.894 10.376,45.894ZM25.65,19.391C30.164,16.104 36.497,17.108 39.771,21.639C40.238,22.264 41.111,22.404 41.745,21.952L41.75,21.948C42.368,21.483 42.509,20.608 42.059,19.972C37.866,14.178 29.768,12.891 23.997,17.098C23.362,17.566 23.222,18.443 23.687,19.079C24.139,19.702 25.029,19.844 25.651,19.39L25.65,19.391ZM17.533,8.167C28.207,0.38 43.206,2.764 50.952,13.478C51.419,14.117 52.294,14.257 52.929,13.79C53.562,13.338 53.703,12.443 53.236,11.819C44.575,-0.167 27.8,-2.833 15.868,5.875C15.234,6.327 15.105,7.22 15.557,7.844C16.007,8.479 16.896,8.622 17.531,8.169L17.533,8.167Z" style="fill:rgb(76,178,124);"/>
        </g>
    </g>
</svg>
