<?xml version="1.0" encoding="UTF-8" standalone="no"?>
<!DOCTYPE svg PUBLIC "-//W3C//DTD SVG 1.1//EN" "http://www.w3.org/Graphics/SVG/1.1/DTD/svg11.dtd">
<svg width="100%" height="100%" viewBox="0 0 57 15" version="1.1" xmlns="http://www.w3.org/2000/svg" xmlns:xlink="http://www.w3.org/1999/xlink" xml:space="preserve" xmlns:serif="http://www.serif.com/" style="fill-rule:evenodd;clip-rule:evenodd;stroke-linejoin:round;stroke-miterlimit:2;">
    <g transform="matrix(1,0,0,1,-1232.61,-191.112)">
        <g transform="matrix(2.69095,0,0,4.819,162.097,298.01)">
            <g transform="matrix(0.390205,0,0,0.201238,285.092,-90.3755)">
                <g transform="matrix(18.7538,0,0,20.3058,288.419,353.527)">
                    <path d="M0.204,-0L0.204,-0.528L0.025,-0.528L0.025,-0.652L0.531,-0.652L0.531,-0.528L0.352,-0.528L0.352,-0L0.204,-0Z" style="fill:white;fill-rule:nonzero;"/>
                </g>
                <g transform="matrix(18.7538,0,0,20.3058,297.652,353.527)">
                    <path d="M0.19,0.012C0.167,0.012 0.147,0.008 0.129,0.001C0.11,-0.007 0.095,-0.018 0.082,-0.032C0.069,-0.045 0.059,-0.061 0.053,-0.079C0.046,-0.097 0.042,-0.117 0.042,-0.138C0.042,-0.19 0.064,-0.231 0.108,-0.26C0.152,-0.289 0.223,-0.309 0.321,-0.319C0.32,-0.341 0.313,-0.359 0.302,-0.372C0.29,-0.385 0.27,-0.391 0.243,-0.391C0.222,-0.391 0.2,-0.387 0.18,-0.379C0.159,-0.371 0.136,-0.36 0.112,-0.346L0.059,-0.443C0.091,-0.462 0.125,-0.478 0.16,-0.49C0.195,-0.502 0.232,-0.508 0.271,-0.508C0.335,-0.508 0.384,-0.49 0.418,-0.454C0.451,-0.417 0.468,-0.361 0.468,-0.284L0.468,-0L0.348,-0L0.338,-0.051L0.334,-0.051C0.313,-0.032 0.29,-0.017 0.267,-0.006C0.244,0.006 0.218,0.012 0.19,0.012ZM0.24,-0.102C0.257,-0.102 0.271,-0.106 0.283,-0.113C0.295,-0.12 0.308,-0.131 0.321,-0.144L0.321,-0.231C0.269,-0.224 0.233,-0.213 0.213,-0.199C0.193,-0.185 0.183,-0.168 0.183,-0.149C0.183,-0.133 0.188,-0.121 0.199,-0.114C0.209,-0.106 0.223,-0.102 0.24,-0.102Z" style="fill:white;fill-rule:nonzero;"/>
                </g>
                <g transform="matrix(18.7538,0,0,20.3058,307.542,353.527)">
                    <path d="M0.281,0.012C0.246,0.012 0.214,0.006 0.185,-0.006C0.155,-0.017 0.129,-0.034 0.107,-0.056C0.085,-0.078 0.068,-0.105 0.055,-0.138C0.042,-0.17 0.036,-0.207 0.036,-0.248C0.036,-0.289 0.043,-0.326 0.057,-0.359C0.071,-0.391 0.09,-0.418 0.114,-0.44C0.137,-0.462 0.165,-0.479 0.196,-0.491C0.227,-0.502 0.26,-0.508 0.294,-0.508C0.325,-0.508 0.352,-0.503 0.376,-0.493C0.399,-0.483 0.42,-0.47 0.439,-0.455L0.37,-0.36C0.347,-0.379 0.324,-0.389 0.303,-0.389C0.267,-0.389 0.239,-0.376 0.218,-0.351C0.197,-0.326 0.187,-0.291 0.187,-0.248C0.187,-0.205 0.198,-0.17 0.219,-0.145C0.24,-0.12 0.266,-0.107 0.298,-0.107C0.314,-0.107 0.33,-0.111 0.345,-0.118C0.36,-0.125 0.374,-0.133 0.387,-0.143L0.445,-0.047C0.42,-0.026 0.394,-0.011 0.365,-0.002C0.336,0.008 0.308,0.012 0.281,0.012Z" style="fill:white;fill-rule:nonzero;"/>
                </g>
                <g transform="matrix(18.7538,0,0,20.3058,316.119,353.527)">
                    <path d="M0.256,0.012C0.225,0.012 0.199,0.007 0.178,-0.002C0.156,-0.011 0.138,-0.024 0.125,-0.041C0.111,-0.058 0.101,-0.078 0.095,-0.102C0.088,-0.125 0.085,-0.151 0.085,-0.18L0.085,-0.381L0.017,-0.381L0.017,-0.49L0.093,-0.496L0.11,-0.628L0.232,-0.628L0.232,-0.496L0.351,-0.496L0.351,-0.381L0.232,-0.381L0.232,-0.182C0.232,-0.154 0.238,-0.134 0.25,-0.122C0.261,-0.109 0.277,-0.103 0.296,-0.103C0.304,-0.103 0.312,-0.104 0.321,-0.106C0.329,-0.108 0.336,-0.11 0.343,-0.113L0.366,-0.006C0.353,-0.002 0.337,0.002 0.319,0.006C0.301,0.01 0.28,0.012 0.256,0.012Z" style="fill:white;fill-rule:nonzero;"/>
                </g>
                <g transform="matrix(18.7538,0,0,20.3058,323.308,353.527)">
                    <path d="M0.065,-0L0.065,-0.496L0.212,-0.496L0.212,-0L0.065,-0ZM0.138,-0.569C0.113,-0.569 0.093,-0.576 0.077,-0.591C0.061,-0.605 0.053,-0.623 0.053,-0.646C0.053,-0.669 0.061,-0.687 0.077,-0.701C0.093,-0.715 0.113,-0.722 0.138,-0.722C0.163,-0.722 0.184,-0.715 0.2,-0.701C0.215,-0.687 0.223,-0.669 0.223,-0.646C0.223,-0.623 0.215,-0.605 0.2,-0.591C0.184,-0.576 0.163,-0.569 0.138,-0.569Z" style="fill:white;fill-rule:nonzero;"/>
                </g>
                <g transform="matrix(18.7538,0,0,20.3058,328.49,353.527)">
                    <path d="M0.2,0.012C0.175,0.012 0.153,0.008 0.136,-0C0.119,-0.008 0.105,-0.019 0.095,-0.034C0.084,-0.048 0.077,-0.065 0.072,-0.086C0.067,-0.106 0.065,-0.129 0.065,-0.154L0.065,-0.701L0.212,-0.701L0.212,-0.148C0.212,-0.133 0.215,-0.122 0.221,-0.116C0.226,-0.11 0.232,-0.107 0.238,-0.107L0.247,-0.107C0.249,-0.107 0.252,-0.108 0.256,-0.109L0.274,-0C0.266,0.003 0.256,0.006 0.244,0.009C0.231,0.011 0.217,0.012 0.2,0.012Z" style="fill:white;fill-rule:nonzero;"/>
                </g>
                <g transform="matrix(18.7538,0,0,20.3058,333.86,353.527)">
                    <path d="M0.287,0.012C0.252,0.012 0.219,0.006 0.188,-0.006C0.157,-0.017 0.131,-0.034 0.108,-0.057C0.085,-0.079 0.068,-0.106 0.055,-0.138C0.042,-0.17 0.036,-0.207 0.036,-0.248C0.036,-0.288 0.043,-0.324 0.056,-0.357C0.069,-0.389 0.087,-0.416 0.109,-0.439C0.13,-0.461 0.155,-0.478 0.183,-0.49C0.211,-0.502 0.24,-0.508 0.27,-0.508C0.305,-0.508 0.336,-0.502 0.363,-0.49C0.389,-0.478 0.411,-0.461 0.429,-0.44C0.446,-0.419 0.459,-0.394 0.468,-0.365C0.477,-0.335 0.481,-0.304 0.481,-0.27C0.481,-0.257 0.48,-0.244 0.479,-0.232C0.478,-0.22 0.476,-0.211 0.475,-0.205L0.178,-0.205C0.185,-0.169 0.2,-0.142 0.223,-0.126C0.246,-0.109 0.274,-0.1 0.307,-0.1C0.342,-0.1 0.378,-0.111 0.414,-0.133L0.463,-0.044C0.438,-0.027 0.409,-0.013 0.379,-0.003C0.347,0.007 0.317,0.012 0.287,0.012ZM0.177,-0.302L0.356,-0.302C0.356,-0.33 0.35,-0.353 0.337,-0.37C0.324,-0.387 0.303,-0.396 0.273,-0.396C0.25,-0.396 0.229,-0.388 0.212,-0.373C0.194,-0.358 0.182,-0.334 0.177,-0.302Z" style="fill:white;fill-rule:nonzero;"/>
                </g>
            </g>
        </g>
    </g>
</svg>
