<?xml version="1.0" encoding="UTF-8" standalone="no"?>
<!DOCTYPE svg PUBLIC "-//W3C//DTD SVG 1.1//EN" "http://www.w3.org/Graphics/SVG/1.1/DTD/svg11.dtd">
<svg width="100%" height="100%" viewBox="0 0 58 56" version="1.1" xmlns="http://www.w3.org/2000/svg" xmlns:xlink="http://www.w3.org/1999/xlink" xml:space="preserve" xmlns:serif="http://www.serif.com/" style="fill-rule:evenodd;clip-rule:evenodd;stroke-linejoin:round;stroke-miterlimit:2;">
    <g id="Artboard1" transform="matrix(1.03577,0,0,1.03765,0,0)">
        <rect x="0" y="0" width="55.906" height="53.123" style="fill:none;"/>
        <g transform="matrix(0.965461,0,0,0.963717,0,0)">
            <path d="M25.65,19.391C30.164,16.104 36.497,17.108 39.771,21.639C40.238,22.264 41.111,22.404 41.745,21.952L41.75,21.948C42.368,21.483 42.509,20.608 42.059,19.972C37.866,14.178 29.768,12.891 23.997,17.098C23.362,17.566 23.222,18.443 23.687,19.079C24.139,19.702 25.029,19.844 25.651,19.39L25.65,19.391Z" style="fill:rgb(0,171,206);"/>
        </g>
    </g>
</svg>
