<?xml version="1.0" encoding="UTF-8" standalone="no"?>
<!DOCTYPE svg PUBLIC "-//W3C//DTD SVG 1.1//EN" "http://www.w3.org/Graphics/SVG/1.1/DTD/svg11.dtd">
<svg width="100%" height="100%" viewBox="0 0 26 23" version="1.1" xmlns="http://www.w3.org/2000/svg" xmlns:xlink="http://www.w3.org/1999/xlink" xml:space="preserve" xmlns:serif="http://www.serif.com/" style="fill-rule:evenodd;clip-rule:evenodd;stroke-linejoin:round;stroke-miterlimit:2;">
    <g transform="matrix(1,0,0,1,-0.0188012,0.0136538)">
        <g transform="matrix(1,0,0,1,-1227.41,-1930.53)">
            <g transform="matrix(0.0290913,0,0,0.0290915,1225.65,1929.66)">
                <g>
                    <path d="M336,195C324.275,195.097 312.674,197.111 301,197.911C244.579,201.774 186.753,215.311 136,240.753C108.161,254.708 79.164,275.188 67.015,305C57.991,327.143 62,354.56 62,378L62,624C62,645.14 60.056,667.042 68.465,687C77.387,708.179 96.353,724.215 115,736.645C150.638,760.401 192.465,773.579 234,782.36C328.445,802.328 426.619,799.789 520,775.471C555.113,766.327 590.842,752.24 620,730.373C637.185,717.486 652.069,702.443 659.772,682C665.896,665.747 664,648.075 664,631C681.964,629.582 700.083,628.864 718,626.714C755.83,622.176 793.179,612.484 829,599.692C861.922,587.935 895.943,570.401 918.536,543C937.301,520.242 938,495.108 938,467L938,181C938,169.572 938.795,157.921 934.772,147C923.875,117.424 898.775,95.754 872,80.428C829.905,56.332 781.621,43.716 734,36.701C648.591,24.118 559.442,27.381 476,50.576C438.241,61.071 399.637,76.652 370,102.95C357.89,113.696 346.185,126.6 340.323,142C333.924,158.81 336,177.314 336,195Z" style="fill:rgb(245,172,0);fill-rule:nonzero;"/>
                </g>
            </g>
        </g>
        <g transform="matrix(1,0,0,1,-1227.41,-1930.53)">
            <g transform="matrix(0.0290913,0,0,0.0290915,1225.64,1929.67)">
                <g>
                    <path d="M618,84.424C600.905,86.669 583.21,85.503 566,87.17C521.685,91.461 476.093,99.992 435,117.579C415.09,126.1 382.6,143.752 386.34,170C387.634,179.082 394.657,190.797 403,194.972C409.486,198.218 418.969,196.445 426,197.286C444.435,199.49 462.664,202.541 481,205.272C508.673,209.393 537.189,218.193 563,228.861C571.479,232.366 579.807,236.122 588,240.248C592.186,242.356 596.389,245.569 601,246.606C614.025,249.536 628.729,248 642,248C673.873,248 705.379,245.609 737,241.714C753.934,239.628 770.43,235.677 787,231.888C812.417,226.077 838.786,217.66 861,203.63C877.507,193.205 894.886,173.649 884.556,153C872.828,129.555 842.309,118.103 819,110.333C774.379,95.46 728.72,89.11 682,85.911C671.349,85.181 660.645,85.64 650,84.911C639.453,84.188 628.569,83.037 618,84.424M882,245C861.507,258.813 838.338,268.221 815,276C784.232,286.256 752.231,293.743 720,297.714C705.354,299.518 690.66,300.435 676,301.83C669.936,302.407 663.984,301.575 658,303C659.609,309.792 662.798,315.998 663.711,323C664.981,332.751 664,343.173 664,353L664,411C678.673,410.998 693.449,409.031 708,407.285C748.581,402.417 788.288,393.542 826,377.281C844.175,369.444 869.406,357.939 879.633,340C883.455,333.296 883,325.434 883,318L883,259C883,254.465 883.769,249.215 882,245M326,249.424C312.491,251.198 298.595,250.853 285,252.17C241.936,256.34 196.342,265.196 157,283.64C138.954,292.101 109.323,308.931 112.844,333C114.943,347.345 124.435,357.712 136,365.653C153.375,377.584 173.804,385.821 194,391.579C229.868,401.805 266.975,407.307 304,410.83C309.975,411.399 316.017,410.68 322,411.09C367.34,414.194 412.852,412.333 458,406.715C482.727,403.639 507.144,398.402 531,391.424C550.196,385.81 570.253,378.976 587,367.795C604.101,356.377 622.18,336.56 609.651,315C595.72,291.025 561.279,278.565 536,271.291C483.249,256.112 428.903,249 374,249C358.295,249 341.574,247.38 326,249.424M117,409L117,475C117,486.624 115.58,498.189 123.043,507.996C131.243,518.772 144.25,526.837 156,533.231C177.181,544.755 199.624,553.619 223,559.63C311.806,582.465 408.056,583.247 497,560.873C525.042,553.819 553.389,544.105 578,528.681C587.77,522.557 598.432,515.831 604.892,506C610.84,496.948 609,485.323 609,475L609,410C597.285,413.709 586.343,422.091 575,427.139C550.861,437.881 525.587,446.001 500,452.406C466.195,460.868 431.557,463.723 397,466.09C365.663,468.236 334.22,467.141 303,464.17C256.032,459.7 209.074,451.196 165,433.396C148.169,426.598 132.809,417.768 117,409M882,409C862.53,423.145 838.662,432.113 816,439.667C783.366,450.544 750.057,457.199 716,461.285C698.788,463.351 681.351,465.952 664,466L664,576C669.704,574.941 675.271,575.375 681,574.83C693.327,573.657 705.746,572.466 718,570.7C756.999,565.08 797.53,555.937 833,538.247C849.892,529.823 873.091,519.212 881.366,501C883.878,495.47 883,488.933 883,483L883,423C883,418.465 883.769,413.215 882,409M117,574L117,639C117,651.045 115.356,661.914 123.04,672C131.42,683 144.04,690.733 156,697.306C175.716,708.14 196.361,716.246 218,722.421C271.941,737.814 328.221,742.482 384,740.039C423.56,738.307 462.715,734.987 501,724C527.436,716.414 553.312,707.614 577,693.4C587.244,687.253 598.309,680.153 605.045,670C611.005,661.017 609,649.309 609,639L609,574C599.24,577.573 590.388,584.199 581,588.742C565.93,596.033 549.984,602.027 534,606.975C477.233,624.546 419.213,631 360,631C319.44,631 278.689,628.327 239,619.576C210.95,613.391 183.432,605.495 157,594.15C149.518,590.939 142.101,587.578 135,583.576C129.198,580.305 123.341,576.021 117,574Z" style="fill-rule:nonzero;"/>
                </g>
            </g>
        </g>
    </g>
</svg>
