<?xml version="1.0" encoding="UTF-8" standalone="no"?>
<!DOCTYPE svg PUBLIC "-//W3C//DTD SVG 1.1//EN" "http://www.w3.org/Graphics/SVG/1.1/DTD/svg11.dtd">
<svg width="100%" height="100%" viewBox="0 0 64 59" version="1.1" xmlns="http://www.w3.org/2000/svg" xmlns:xlink="http://www.w3.org/1999/xlink" xml:space="preserve" xmlns:serif="http://www.serif.com/" style="fill-rule:evenodd;clip-rule:evenodd;stroke-linejoin:round;stroke-miterlimit:2;">
    <g id="Artboard1" transform="matrix(0.771084,0,0,0.766234,-37.012,-32.1818)">
        <rect x="48" y="42" width="83" height="77" style="fill:none;"/>
        <g transform="matrix(1.29688,0,0,1.30508,37.625,30.2542)">
            <path d="M28.156,30.723C29.159,29.261 31.385,26.007 31.57,25.725C34.326,21.498 39.136,20.162 41.695,20.162L49.396,20.162C52.007,20.162 53.964,21.828 54.616,22.751C55.491,24.015 56.914,26.172 56.916,26.174C57.399,26.915 57.197,27.915 56.445,28.421C55.699,28.907 54.694,28.696 54.209,27.954C54.209,27.954 52.816,25.842 51.948,24.597C51.644,24.158 50.664,23.401 49.396,23.401C49.396,23.401 41.695,23.401 41.695,23.401C39.818,23.401 36.302,24.397 34.282,27.489C34.067,27.822 31.049,32.226 30.448,33.102L30.346,33.252C30.037,33.707 29.548,33.963 29.013,33.963C29.013,33.963 24.99,33.963 24.99,33.963C24.827,33.963 24.668,33.938 24.519,33.892L23.97,33.892L23.97,38.645L24.11,38.645C26.948,38.645 29.251,40.947 29.251,43.784C29.251,43.784 29.251,46.425 29.251,46.425C29.251,49.263 26.948,51.565 24.11,51.565L23.97,51.565L23.97,56.176L26.294,56.176C26.407,56.176 26.514,56.202 26.609,56.247L29.373,56.247C29.903,56.247 30.386,56.501 30.699,56.929C33.093,60.311 37.025,64.168 41.731,64.168C41.731,64.168 54.677,64.168 54.677,64.168C57.106,64.168 58.897,61.337 57.461,59.032C57.171,58.581 57.13,58.018 57.34,57.519L57.351,57.492C57.576,57.012 58.011,56.663 58.544,56.566C61.246,56.088 62.52,52.349 59.75,50.346C59.14,49.913 58.911,49.128 59.168,48.438L59.175,48.418C59.449,47.743 60.145,47.317 60.861,47.397C63.896,47.708 65.937,44.162 63.737,41.671C63.334,41.205 63.223,40.56 63.468,39.973C63.71,39.407 64.245,39.021 64.875,38.989C66.85,38.887 68.034,37.179 68.02,35.465C68.005,33.797 66.565,32.195 64.698,32.202C61.863,32.22 55.708,32.202 51.156,32.202C50.266,32.202 49.537,31.474 49.537,30.583C49.537,29.692 50.266,28.963 51.156,28.963C55.696,28.963 61.847,28.981 64.672,28.963C68.383,28.943 71.229,32.13 71.259,35.433C71.286,37.996 69.874,40.511 67.478,41.626C68.847,45.059 67.028,48.804 63.822,50.144C65.607,53.44 64.079,57.47 60.996,59.106C62.097,63.204 58.836,67.408 54.677,67.408C54.677,67.408 41.731,67.408 41.731,67.408C36.291,67.408 31.54,63.418 28.554,59.486L18.405,59.486C18.292,59.486 18.186,59.461 18.09,59.416L14.191,59.416C13.3,59.416 12.572,58.687 12.572,57.796C12.572,56.905 13.3,56.176 14.191,56.176L20.73,56.176L20.73,51.565L20.59,51.565C17.752,51.565 15.45,49.263 15.45,46.425L15.45,43.784C15.45,40.947 17.752,38.645 20.59,38.645L20.73,38.645L20.73,33.892L14.191,33.892C13.3,33.892 12.572,33.163 12.572,32.273C12.572,31.382 13.3,30.653 14.191,30.653C14.191,30.653 27.281,30.653 27.281,30.653C27.393,30.653 27.5,30.678 27.596,30.723L28.156,30.723ZM24.11,41.884C25.162,41.884 26.011,42.733 26.011,43.784L26.011,46.425C26.011,47.477 25.162,48.326 24.11,48.326L20.59,48.326C19.538,48.326 18.689,47.477 18.689,46.425C18.689,46.425 18.689,43.784 18.689,43.784C18.689,42.733 19.538,41.884 20.59,41.884L24.11,41.884Z" style="fill:rgb(245,172,0);"/>
        </g>
    </g>
</svg>
