<?xml version="1.0" encoding="UTF-8" standalone="no"?>
<!DOCTYPE svg PUBLIC "-//W3C//DTD SVG 1.1//EN" "http://www.w3.org/Graphics/SVG/1.1/DTD/svg11.dtd">
<svg width="100%" height="100%" viewBox="0 0 32 28" version="1.1" xmlns="http://www.w3.org/2000/svg" xmlns:xlink="http://www.w3.org/1999/xlink" xml:space="preserve" xmlns:serif="http://www.serif.com/" style="fill-rule:evenodd;clip-rule:evenodd;stroke-linejoin:round;stroke-miterlimit:2;">
    <g transform="matrix(1,0,0,1,-1194.53,-184.389)">
        <g transform="matrix(2.69095,0,0,4.819,162.097,298.01)">
            <g transform="matrix(0.522141,0,0,0.115551,239.497,-39.0616)">
                <g transform="matrix(0.000689442,0,0,-0.00173965,187.984,391.597)">
                    <path d="M137483,148074C136337,148074 135278,147461 134705,146466C133109,143695 129857,138050 128262,135280C127689,134287 127689,133061 128262,132066C129857,129295 133109,123650 134705,120880C135278,119887 136337,119274 137483,119274L150369,119274C151516,119274 152574,119887 153147,120880C154743,123650 157995,129295 159591,132066C160164,133061 160164,134287 159591,135280C157995,138050 154743,143695 153147,146466C152574,147461 151516,148074 150369,148074L137483,148074Z" style="fill:rgb(239,75,91);"/>
                </g>
                <g transform="matrix(0.000689442,0,0,-0.00173965,187.984,391.597)">
                    <path d="M140276,143274C140045,143274 139831,143150 139716,142950C139537,142636 139266,142167 139085,141855C138970,141654 138970,141407 139085,141207C139266,140893 139537,140422 139719,140109C139833,139908 139833,139661 139719,139460C139537,139148 139266,138676 139085,138362C138970,138162 138970,137915 139085,137715C139266,137402 139538,136929 139719,136616C139833,136417 139833,136170 139719,135969C139538,135656 139266,135183 139085,134871C138970,134671 138970,134423 139085,134223C139266,133909 139537,133438 139719,133125C139833,132924 139833,132677 139719,132476C139537,132163 139266,131692 139085,131379C138970,131178 138970,130931 139085,130730C139266,130418 139537,129946 139717,129632C139833,129433 139833,129186 139717,128985C139537,128672 139266,128199 139085,127887C138970,127687 138970,127440 139085,127239C139266,126927 139535,126456 139716,126144C139831,125944 140045,125820 140276,125820L141541,125820C141772,125820 141985,125696 142100,125496C142281,125184 142553,124711 142734,124398C142849,124197 143062,124074 143293,124074L144554,124074C144786,124074 144998,124197 145114,124398C145294,124711 145567,125184 145747,125496C145862,125696 146075,125820 146306,125820L147571,125820C147802,125820 148016,125944 148132,126144C148312,126456 148582,126927 148762,127239C148877,127440 148877,127687 148762,127887C148582,128199 148312,128669 148132,128982C148016,129183 147802,129305 147571,129305L146311,129305C146080,129305 145865,129183 145750,128982C145570,128669 145299,128196 145118,127883C145003,127684 144789,127560 144558,127560L143290,127560C143059,127560 142844,127684 142729,127883C142549,128198 142276,128670 142094,128985C141979,129186 141979,129433 142094,129632C142276,129946 142547,130418 142727,130732C142843,130931 142843,131178 142727,131379C142547,131692 142276,132165 142094,132476C141980,132677 141980,132924 142094,133125C142276,133438 142549,133912 142729,134226C142844,134427 143059,134550 143290,134550L144554,134550C144786,134550 144998,134674 145114,134874C145294,135186 145565,135657 145745,135969C145861,136170 145861,136417 145745,136618C145565,136929 145294,137399 145114,137712C144998,137911 144786,138035 144554,138035L143290,138035C143059,138035 142844,138158 142729,138359C142549,138673 142276,139147 142094,139460C141980,139661 141980,139908 142094,140109C142276,140422 142547,140893 142727,141207C142843,141407 142843,141654 142727,141855C142547,142167 142278,142638 142097,142950C141982,143150 141768,143274 141538,143274L140276,143274Z" style="fill:white;"/>
                </g>
            </g>
        </g>
    </g>
</svg>
