<?xml version="1.0" encoding="UTF-8" standalone="no"?>
<!DOCTYPE svg PUBLIC "-//W3C//DTD SVG 1.1//EN" "http://www.w3.org/Graphics/SVG/1.1/DTD/svg11.dtd">
<svg width="100%" height="100%" viewBox="0 0 240 320" version="1.1" xmlns="http://www.w3.org/2000/svg" xmlns:xlink="http://www.w3.org/1999/xlink" xml:space="preserve" xmlns:serif="http://www.serif.com/" style="fill-rule:evenodd;clip-rule:evenodd;stroke-linejoin:round;stroke-miterlimit:2;">
    <g transform="matrix(1,0,0,1,-346.388,-357.49)">
        <g transform="matrix(2.69095,0,0,4.819,162.097,298.01)">
            <g transform="matrix(0.371616,0,0,0.207512,-124.527,-74.4989)">
                <path d="M759.388,418.49L519.388,418.49L519.388,738.49L759.388,738.49L759.388,418.49ZM639.388,735.99L636.685,735.986L634.08,735.98L631.568,735.969L629.146,735.953L626.806,735.934L624.546,735.91L622.36,735.883L620.247,735.852L618.203,735.819L616.223,735.78L614.305,735.741L612.446,735.696L610.644,735.649L608.895,735.598L607.199,735.546L605.55,735.491L603.95,735.433L602.394,735.372L600.882,735.31L599.411,735.244L597.981,735.175L596.589,735.105L595.234,735.031L593.913,734.957L591.372,734.799L588.956,734.633L586.658,734.46L584.47,734.278L582.38,734.087L580.386,733.891L578.479,733.684L576.656,733.471L574.909,733.251L573.235,733.025L571.627,732.791L570.085,732.549L568.603,732.3L567.178,732.044L565.807,731.783L564.484,731.512L563.212,731.237L561.984,730.953L560.8,730.662L559.655,730.364L558.55,730.06L557.482,729.748L556.451,729.428L555.45,729.1L553.545,728.424L551.756,727.718L550.073,726.979L548.488,726.207L546.992,725.4L545.577,724.558L544.239,723.679L542.97,722.76L541.767,721.801L540.624,720.797L539.536,719.748L538.501,718.653L537.516,717.504L536.575,716.302L535.679,715.042L534.823,713.72L534.003,712.334L533.222,710.876L532.472,709.344L531.757,707.729L531.073,706.029L530.415,704.236L529.789,702.339L529.187,700.333L528.611,698.208L528.331,697.098L528.059,695.952L527.793,694.773L527.531,693.554L527.277,692.299L527.026,691.002L526.783,689.663L526.544,688.277L526.313,686.846L526.085,685.364L525.861,683.832L525.645,682.243L525.433,680.597L525.227,678.892L525.027,677.121L524.83,675.281L524.639,673.37L524.454,671.384L524.275,669.317L524.099,667.163L523.93,664.919L523.766,662.578L523.608,660.131L523.453,657.577L523.307,654.904L523.164,652.105L523.097,650.654L523.029,649.169L522.964,647.648L522.9,646.088L522.836,644.49L522.777,642.852L522.717,641.171L522.659,639.446L522.603,637.676L522.547,635.859L522.495,633.991L522.445,632.075L522.395,630.104L522.349,628.076L522.302,625.99L522.26,623.846L522.218,621.637L522.179,619.362L522.142,617.018L522.108,614.603L522.075,612.111L522.044,609.54L522.015,606.887L521.99,604.145L521.967,601.313L521.948,598.384L521.93,595.355L521.915,592.218L521.903,588.97L521.896,585.603L521.89,582.113L521.888,580.318L521.888,576.661L521.89,574.867L521.896,571.375L521.903,568.008L521.915,564.76L521.93,561.626L521.948,558.596L521.967,555.666L521.99,552.835L522.015,550.094L522.044,547.439L522.075,544.869L522.108,542.378L522.142,539.96L522.179,537.617L522.218,535.342L522.26,533.135L522.302,530.988L522.349,528.904L522.395,526.877L522.445,524.906L522.495,522.987L522.547,521.122L522.603,519.303L522.659,517.532L522.717,515.809L522.777,514.128L522.836,512.489L522.9,510.89L522.964,509.333L523.029,507.81L523.097,506.326L523.164,504.876L523.307,502.076L523.453,499.403L523.608,496.848L523.766,494.403L523.93,492.061L524.099,489.815L524.275,487.663L524.454,485.595L524.639,483.608L524.83,481.698L525.027,479.859L525.227,478.089L525.433,476.381L525.645,474.736L525.861,473.149L526.085,471.614L526.313,470.133L526.544,468.702L526.783,467.318L527.026,465.978L527.277,464.68L527.531,463.424L527.793,462.208L528.059,461.026L528.331,459.882L528.611,458.771L529.187,456.646L529.789,454.64L530.415,452.745L531.073,450.949L531.757,449.249L532.472,447.635L533.222,446.102L534.003,444.646L534.823,443.258L535.679,441.938L536.575,440.677L537.516,439.476L538.501,438.328L539.536,437.23L540.624,436.181L541.767,435.179L542.97,434.22L544.239,433.302L545.577,432.42L546.992,431.58L548.488,430.773L550.073,430.001L551.756,429.262L553.545,428.554L555.45,427.878L556.451,427.552L557.482,427.233L558.55,426.921L559.655,426.615L560.8,426.316L561.984,426.026L563.212,425.743L564.484,425.466L565.807,425.197L567.178,424.934L568.603,424.679L570.085,424.431L571.627,424.189L573.235,423.955L574.909,423.727L576.656,423.507L578.479,423.295L580.386,423.09L582.38,422.891L584.47,422.702L586.658,422.521L588.956,422.345L591.372,422.179L593.913,422.023L595.234,421.947L596.589,421.875L597.981,421.805L599.411,421.737L600.882,421.671L602.394,421.606L603.95,421.546L605.55,421.487L607.199,421.433L608.895,421.38L610.644,421.329L612.446,421.283L614.305,421.24L616.223,421.199L618.203,421.162L620.247,421.127L622.36,421.095L624.546,421.068L626.806,421.045L629.146,421.025L631.568,421.01L634.08,421L636.685,420.992L639.388,420.99L642.091,420.992L644.696,421L647.206,421.01L649.629,421.025L651.97,421.045L654.229,421.068L656.414,421.095L658.527,421.127L660.572,421.162L662.552,421.199L664.471,421.24L666.329,421.283L668.132,421.329L669.881,421.38L671.577,421.433L673.224,421.487L674.826,421.546L676.38,421.606L677.893,421.671L679.364,421.737L680.795,421.805L682.187,421.875L683.542,421.947L684.863,422.023L687.404,422.179L689.818,422.345L692.116,422.521L694.306,422.702L696.394,422.891L698.389,423.09L700.294,423.295L702.12,423.507L703.867,423.727L705.54,423.955L707.146,424.189L708.691,424.431L710.171,424.679L711.598,424.934L712.969,425.197L714.289,425.466L715.564,425.743L716.792,426.026L717.976,426.316L719.119,426.615L720.224,426.921L721.292,427.233L722.325,427.552L723.326,427.878L725.231,428.554L727.018,429.262L728.701,430.001L730.288,430.773L731.784,431.58L733.197,432.42L734.537,433.302L735.806,434.22L737.009,435.179L738.152,436.181L739.239,437.23L740.275,438.328L741.26,439.476L742.201,440.677L743.097,441.938L743.953,443.258L744.771,444.646L745.553,446.102L746.301,447.635L747.019,449.249L747.703,450.949L748.359,452.745L748.987,454.64L749.589,456.646L750.165,458.771L750.443,459.882L750.716,461.026L750.982,462.208L751.245,463.424L751.499,464.68L751.748,465.978L751.993,467.318L752.23,468.702L752.463,470.133L752.691,471.614L752.912,473.149L753.13,474.736L753.342,476.381L753.549,478.089L753.749,479.859L753.944,481.698L754.135,483.608L754.32,485.595L754.501,487.663L754.676,489.815L754.844,492.061L755.01,494.403L755.168,496.848L755.32,499.403L755.469,502.076L755.61,504.876L755.679,506.326L755.746,507.81L755.812,509.333L755.876,510.89L755.939,512.489L755.999,514.128L756.059,515.809L756.117,517.532L756.173,519.303L756.227,521.122L756.281,522.987L756.331,524.906L756.379,526.877L756.427,528.904L756.471,530.988L756.516,533.135L756.556,535.342L756.597,537.617L756.633,539.96L756.668,542.378L756.701,544.869L756.732,547.439L756.759,550.094L756.786,552.835L756.809,555.666L756.828,558.596L756.845,561.626L756.861,564.76L756.872,568.008L756.88,571.375L756.886,574.867L756.888,576.661L756.888,580.318L756.886,582.113L756.88,585.603L756.872,588.97L756.861,592.218L756.845,595.355L756.828,598.384L756.809,601.313L756.786,604.145L756.759,606.887L756.732,609.54L756.701,612.111L756.668,614.603L756.633,617.018L756.597,619.362L756.556,621.637L756.516,623.846L756.471,625.99L756.427,628.076L756.379,630.104L756.331,632.075L756.281,633.991L756.227,635.859L756.173,637.676L756.117,639.446L756.059,641.171L755.999,642.852L755.939,644.49L755.876,646.088L755.812,647.648L755.746,649.169L755.679,650.654L755.61,652.105L755.469,654.904L755.32,657.577L755.168,660.131L755.01,662.578L754.844,664.919L754.676,667.163L754.501,669.317L754.32,671.384L754.135,673.37L753.944,675.281L753.749,677.121L753.549,678.892L753.342,680.597L753.13,682.243L752.912,683.832L752.691,685.364L752.463,686.846L752.23,688.277L751.993,689.663L751.748,691.002L751.499,692.299L751.245,693.554L750.982,694.773L750.716,695.952L750.443,697.098L750.165,698.208L749.589,700.333L748.987,702.339L748.359,704.236L747.703,706.029L747.019,707.729L746.301,709.344L745.553,710.876L744.771,712.334L743.953,713.72L743.097,715.042L742.201,716.302L741.26,717.504L740.275,718.653L739.239,719.748L738.152,720.797L737.009,721.801L735.806,722.76L734.537,723.679L733.197,724.558L731.784,725.4L730.288,726.207L728.701,726.979L727.018,727.718L725.231,728.424L723.326,729.1L722.325,729.428L721.292,729.748L720.224,730.06L719.119,730.364L717.976,730.662L716.792,730.953L715.564,731.237L714.289,731.512L712.969,731.783L711.598,732.044L710.171,732.3L708.691,732.549L707.146,732.791L705.54,733.025L703.867,733.251L702.12,733.471L700.294,733.684L698.389,733.891L696.394,734.087L694.306,734.278L692.116,734.46L689.818,734.633L687.404,734.799L684.863,734.957L683.542,735.031L682.187,735.105L680.795,735.175L679.364,735.244L677.893,735.31L676.38,735.372L674.826,735.433L673.224,735.491L671.577,735.546L669.881,735.598L668.132,735.649L666.329,735.696L664.471,735.741L662.552,735.78L660.572,735.819L658.527,735.852L656.414,735.883L654.229,735.91L651.97,735.934L649.629,735.953L647.206,735.969L644.696,735.98L642.091,735.986L639.388,735.99Z" style="fill-rule:nonzero;"/>
            </g>
        </g>
    </g>
</svg>
