<?xml version="1.0" encoding="UTF-8" standalone="no"?>
<!DOCTYPE svg PUBLIC "-//W3C//DTD SVG 1.1//EN" "http://www.w3.org/Graphics/SVG/1.1/DTD/svg11.dtd">
<svg width="100%" height="100%" viewBox="0 0 235 315" version="1.1" xmlns="http://www.w3.org/2000/svg" xmlns:xlink="http://www.w3.org/1999/xlink" xml:space="preserve" xmlns:serif="http://www.serif.com/" style="fill-rule:evenodd;clip-rule:evenodd;stroke-linejoin:round;stroke-miterlimit:2;">
    <g transform="matrix(1,0,0,1,-521.888,-420.99)">
        <g transform="matrix(2.69095,0,0,4.819,162.097,298.01)">
            <g transform="matrix(0.716463,-5.48694e-19,9.8261e-19,-0.404557,177.142,60.3994)">
                <path d="M0.316,-75.358L-1.086,-75.356L-2.437,-75.353L-3.74,-75.347L-4.996,-75.339L-6.21,-75.329L-7.382,-75.317L-8.516,-75.303L-9.612,-75.287L-10.672,-75.27L-11.699,-75.25L-12.694,-75.23L-13.658,-75.207L-14.593,-75.183L-15.5,-75.157L-16.38,-75.13L-17.235,-75.102L-18.065,-75.072L-18.872,-75.041L-19.656,-75.009L-20.419,-74.975L-21.161,-74.94L-21.883,-74.904L-22.586,-74.866L-23.271,-74.828L-24.589,-74.747L-25.842,-74.662L-27.034,-74.573L-28.169,-74.48L-29.253,-74.382L-30.287,-74.281L-31.276,-74.175L-32.222,-74.066L-33.128,-73.953L-33.996,-73.837L-34.83,-73.717L-35.63,-73.593L-36.399,-73.465L-37.138,-73.334L-37.849,-73.2L-38.535,-73.061L-39.195,-72.92L-39.832,-72.774L-40.446,-72.625L-41.04,-72.472L-41.613,-72.316L-42.167,-72.156L-42.702,-71.992L-43.221,-71.824L-44.209,-71.477L-45.137,-71.115L-46.01,-70.736L-46.832,-70.34L-47.608,-69.926L-48.342,-69.494L-49.036,-69.043L-49.694,-68.572L-50.318,-68.08L-50.911,-67.565L-51.475,-67.027L-52.012,-66.465L-52.523,-65.876L-53.011,-65.259L-53.476,-64.613L-53.92,-63.935L-54.345,-63.224L-54.75,-62.476L-55.139,-61.69L-55.51,-60.862L-55.865,-59.99L-56.206,-59.07L-56.531,-58.097L-56.843,-57.068L-57.142,-55.978L-57.287,-55.409L-57.428,-54.821L-57.566,-54.216L-57.702,-53.591L-57.834,-52.947L-57.964,-52.282L-58.09,-51.595L-58.214,-50.884L-58.334,-50.15L-58.452,-49.39L-58.568,-48.604L-58.68,-47.789L-58.79,-46.945L-58.897,-46.07L-59.001,-45.162L-59.103,-44.218L-59.202,-43.238L-59.298,-42.219L-59.391,-41.159L-59.482,-40.054L-59.57,-38.903L-59.655,-37.702L-59.737,-36.447L-59.817,-35.137L-59.893,-33.766L-59.967,-32.33L-60.002,-31.586L-60.037,-30.824L-60.071,-30.044L-60.104,-29.244L-60.137,-28.424L-60.168,-27.584L-60.199,-26.722L-60.229,-25.837L-60.258,-24.929L-60.287,-23.997L-60.314,-23.039L-60.34,-22.056L-60.366,-21.045L-60.39,-20.005L-60.414,-18.935L-60.436,-17.835L-60.458,-16.702L-60.478,-15.535L-60.497,-14.333L-60.515,-13.094L-60.532,-11.816L-60.548,-10.497L-60.563,-9.136L-60.576,-7.73L-60.588,-6.277L-60.598,-4.775L-60.607,-3.221L-60.615,-1.612L-60.621,0.054L-60.625,1.781L-60.628,3.571L-60.629,4.492L-60.629,6.368L-60.628,7.288L-60.625,9.079L-60.621,10.806L-60.615,12.472L-60.607,14.08L-60.598,15.634L-60.588,17.137L-60.576,18.589L-60.563,19.995L-60.548,21.357L-60.532,22.675L-60.515,23.953L-60.497,25.193L-60.478,26.395L-60.458,27.562L-60.436,28.694L-60.414,29.795L-60.39,30.864L-60.366,31.904L-60.34,32.915L-60.314,33.899L-60.287,34.856L-60.258,35.789L-60.229,36.697L-60.199,37.581L-60.168,38.443L-60.137,39.284L-60.104,40.104L-60.071,40.903L-60.037,41.684L-60.002,42.445L-59.967,43.189L-59.893,44.625L-59.817,45.996L-59.737,47.307L-59.655,48.561L-59.57,49.762L-59.482,50.914L-59.391,52.018L-59.298,53.079L-59.202,54.098L-59.103,55.078L-59.001,56.021L-58.897,56.929L-58.79,57.805L-58.68,58.649L-58.568,59.463L-58.452,60.25L-58.334,61.01L-58.214,61.744L-58.09,62.454L-57.964,63.141L-57.834,63.807L-57.702,64.451L-57.566,65.075L-57.428,65.681L-57.287,66.268L-57.142,66.838L-56.843,67.928L-56.531,68.957L-56.206,69.929L-55.865,70.85L-55.51,71.722L-55.139,72.55L-54.75,73.336L-54.345,74.083L-53.92,74.795L-53.476,75.472L-53.011,76.119L-52.523,76.735L-52.012,77.324L-51.475,77.887L-50.911,78.425L-50.318,78.939L-49.694,79.431L-49.036,79.902L-48.342,80.354L-47.608,80.785L-46.832,81.199L-46.01,81.595L-45.137,81.974L-44.209,82.337L-43.221,82.684L-42.702,82.851L-42.167,83.015L-41.613,83.175L-41.04,83.332L-40.446,83.485L-39.832,83.634L-39.195,83.779L-38.535,83.921L-37.849,84.059L-37.138,84.194L-36.399,84.325L-35.63,84.452L-34.83,84.576L-33.996,84.696L-33.128,84.813L-32.222,84.926L-31.276,85.035L-30.287,85.14L-29.253,85.242L-28.169,85.339L-27.034,85.432L-25.842,85.522L-24.589,85.607L-23.271,85.687L-22.586,85.726L-21.883,85.763L-21.161,85.799L-20.419,85.834L-19.656,85.868L-18.872,85.901L-18.065,85.932L-17.235,85.962L-16.38,85.99L-15.5,86.017L-14.593,86.043L-13.658,86.067L-12.694,86.089L-11.699,86.11L-10.672,86.129L-9.612,86.147L-8.516,86.163L-7.382,86.177L-6.21,86.189L-4.996,86.199L-3.74,86.207L-2.437,86.212L-1.086,86.216L0.316,86.217L1.718,86.216L3.069,86.212L4.371,86.207L5.628,86.199L6.842,86.189L8.014,86.177L9.147,86.163L10.243,86.147L11.304,86.129L12.331,86.11L13.326,86.089L14.29,86.067L15.225,86.043L16.132,86.017L17.012,85.99L17.866,85.962L18.697,85.932L19.503,85.901L20.288,85.868L21.051,85.834L21.793,85.799L22.515,85.763L23.218,85.726L23.903,85.687L25.221,85.607L26.473,85.522L27.665,85.432L28.801,85.339L29.884,85.242L30.919,85.14L31.907,85.035L32.854,84.926L33.76,84.813L34.628,84.696L35.461,84.576L36.262,84.452L37.03,84.325L37.77,84.194L38.481,84.059L39.166,83.921L39.827,83.779L40.464,83.634L41.078,83.485L41.671,83.332L42.244,83.175L42.798,83.015L43.334,82.851L43.853,82.684L44.841,82.337L45.768,81.974L46.641,81.595L47.464,81.199L48.24,80.785L48.973,80.354L49.668,79.902L50.326,79.431L50.95,78.939L51.543,78.425L52.107,77.887L52.644,77.324L53.155,76.735L53.643,76.119L54.108,75.472L54.552,74.795L54.976,74.083L55.382,73.336L55.77,72.55L56.142,71.722L56.497,70.85L56.837,69.929L57.163,68.957L57.475,67.928L57.774,66.838L57.918,66.268L58.06,65.681L58.198,65.075L58.334,64.451L58.466,63.807L58.595,63.141L58.722,62.454L58.845,61.744L58.966,61.01L59.084,60.25L59.199,59.463L59.312,58.649L59.422,57.805L59.529,56.929L59.633,56.021L59.734,55.078L59.833,54.098L59.929,53.079L60.023,52.018L60.114,50.914L60.201,49.762L60.287,48.561L60.369,47.307L60.448,45.996L60.525,44.625L60.598,43.189L60.634,42.445L60.669,41.684L60.703,40.903L60.736,40.104L60.769,39.284L60.8,38.443L60.831,37.581L60.861,36.697L60.89,35.789L60.918,34.856L60.946,33.899L60.972,32.915L60.997,31.904L61.022,30.864L61.045,29.795L61.068,28.694L61.089,27.562L61.11,26.395L61.129,25.193L61.147,23.953L61.164,22.675L61.18,21.357L61.194,19.995L61.208,18.589L61.22,17.137L61.23,15.634L61.239,14.08L61.247,12.472L61.253,10.806L61.257,9.079L61.26,7.288L61.261,6.368L61.261,4.492L61.26,3.571L61.257,1.781L61.253,0.054L61.247,-1.612L61.239,-3.221L61.23,-4.775L61.22,-6.277L61.208,-7.73L61.194,-9.136L61.18,-10.497L61.164,-11.816L61.147,-13.094L61.129,-14.333L61.11,-15.535L61.089,-16.702L61.068,-17.835L61.045,-18.935L61.022,-20.005L60.997,-21.045L60.972,-22.056L60.946,-23.039L60.918,-23.997L60.89,-24.929L60.861,-25.837L60.831,-26.722L60.8,-27.584L60.769,-28.424L60.736,-29.244L60.703,-30.044L60.669,-30.824L60.634,-31.586L60.598,-32.33L60.525,-33.766L60.448,-35.137L60.369,-36.447L60.287,-37.702L60.201,-38.903L60.114,-40.054L60.023,-41.159L59.929,-42.219L59.833,-43.238L59.734,-44.218L59.633,-45.162L59.529,-46.07L59.422,-46.945L59.312,-47.789L59.199,-48.604L59.084,-49.39L58.966,-50.15L58.845,-50.884L58.722,-51.595L58.595,-52.282L58.466,-52.947L58.334,-53.591L58.198,-54.216L58.06,-54.821L57.918,-55.409L57.774,-55.978L57.475,-57.068L57.163,-58.097L56.837,-59.07L56.497,-59.99L56.142,-60.862L55.77,-61.69L55.382,-62.476L54.976,-63.224L54.552,-63.935L54.108,-64.613L53.643,-65.259L53.155,-65.876L52.644,-66.465L52.107,-67.027L51.543,-67.565L50.95,-68.08L50.326,-68.572L49.668,-69.043L48.973,-69.494L48.24,-69.926L47.464,-70.34L46.641,-70.736L45.768,-71.115L44.841,-71.477L43.853,-71.824L43.334,-71.992L42.798,-72.156L42.244,-72.316L41.671,-72.472L41.078,-72.625L40.464,-72.774L39.827,-72.92L39.166,-73.061L38.481,-73.2L37.77,-73.334L37.03,-73.465L36.262,-73.593L35.461,-73.717L34.628,-73.837L33.76,-73.953L32.854,-74.066L31.907,-74.175L30.919,-74.281L29.884,-74.382L28.801,-74.48L27.665,-74.573L26.473,-74.662L25.221,-74.747L23.903,-74.828L23.218,-74.866L22.515,-74.904L21.793,-74.94L21.051,-74.975L20.288,-75.009L19.503,-75.041L18.697,-75.072L17.866,-75.102L17.012,-75.13L16.132,-75.157L15.225,-75.183L14.29,-75.207L13.326,-75.23L12.331,-75.25L11.304,-75.27L10.243,-75.287L9.147,-75.303L8.014,-75.317L6.842,-75.329L5.628,-75.339L4.371,-75.347L3.069,-75.353L1.718,-75.356L0.316,-75.358ZM43.519,81.713L43.027,81.871C43.027,81.871 42.491,82.035 42.507,82.03C42.507,82.03 41.953,82.19 41.967,82.186C41.967,82.186 41.394,82.343 41.409,82.339C41.409,82.339 40.816,82.492 40.831,82.489C40.831,82.489 40.217,82.638 40.231,82.634C40.231,82.634 39.594,82.779 39.607,82.777C39.607,82.777 38.946,82.919 38.959,82.916C38.959,82.916 38.274,83.054 38.285,83.052C38.285,83.052 37.574,83.187 37.587,83.184C37.587,83.184 36.847,83.315 36.859,83.313C36.859,83.313 36.091,83.44 36.102,83.438C36.102,83.438 35.301,83.562 35.311,83.561C35.311,83.561 34.478,83.681 34.488,83.68C34.488,83.68 33.62,83.797 33.63,83.795C33.63,83.795 32.724,83.908 32.734,83.907C32.734,83.907 31.787,84.016 31.796,84.015C31.796,84.015 30.808,84.12 30.816,84.119C30.816,84.119 29.781,84.221 29.79,84.22C29.79,84.22 28.707,84.317 28.715,84.317C28.715,84.317 27.579,84.41 27.586,84.409C27.586,84.409 26.394,84.499 26.402,84.499C26.402,84.499 25.15,84.584 25.157,84.583C25.157,84.583 23.839,84.663 23.843,84.663C23.843,84.663 23.158,84.702 23.163,84.702C23.163,84.702 22.46,84.739 22.463,84.738C22.463,84.738 21.741,84.774 21.744,84.774C21.744,84.774 21.002,84.809 21.004,84.809C21.004,84.809 20.241,84.843 20.244,84.843C20.244,84.843 19.459,84.876 19.463,84.876C19.463,84.876 18.657,84.907 18.659,84.907C18.659,84.907 17.828,84.937 17.832,84.937C17.832,84.937 16.978,84.965 16.98,84.965C16.98,84.965 16.1,84.992 16.102,84.992C16.102,84.992 15.195,85.018 15.198,85.017C15.198,85.017 14.263,85.041 14.266,85.041C14.266,85.041 13.302,85.063 13.304,85.063C13.304,85.063 12.309,85.084 12.312,85.084C12.312,85.084 11.285,85.103 11.286,85.103C11.286,85.103 10.225,85.121 10.228,85.121C10.228,85.121 9.132,85.137 9.134,85.137C9.134,85.137 8.001,85.151 8.003,85.151C8.003,85.151 6.831,85.163 6.833,85.163C6.833,85.163 5.619,85.173 5.621,85.173C5.621,85.173 4.364,85.181 4.367,85.181C4.367,85.181 3.065,85.186 3.066,85.186C3.066,85.186 1.715,85.19 1.717,85.19C1.717,85.19 0.315,85.191 0.317,85.191C0.317,85.191 -1.085,85.19 -1.083,85.19C-1.083,85.19 -2.434,85.186 -2.433,85.186C-2.433,85.186 -3.736,85.181 -3.733,85.181C-3.733,85.181 -4.989,85.173 -4.987,85.173C-4.987,85.173 -6.201,85.163 -6.199,85.163C-6.199,85.163 -7.371,85.151 -7.369,85.151C-7.369,85.151 -8.503,85.137 -8.501,85.137C-8.501,85.137 -9.597,85.121 -9.594,85.121C-9.594,85.121 -10.654,85.103 -10.653,85.103C-10.653,85.103 -11.68,85.084 -11.677,85.084C-11.677,85.084 -12.672,85.063 -12.67,85.063C-12.67,85.063 -13.634,85.041 -13.631,85.041C-13.631,85.041 -14.566,85.017 -14.563,85.018C-14.563,85.018 -15.47,84.992 -15.468,84.992C-15.468,84.992 -16.348,84.965 -16.346,84.965C-16.346,84.965 -17.201,84.937 -17.197,84.937C-17.197,84.937 -18.027,84.907 -18.025,84.907C-18.025,84.907 -18.832,84.876 -18.828,84.876C-18.828,84.876 -19.612,84.843 -19.609,84.843C-19.609,84.843 -20.372,84.809 -20.37,84.809C-20.37,84.809 -21.112,84.774 -21.109,84.774C-21.109,84.774 -21.831,84.738 -21.828,84.739C-21.828,84.739 -22.531,84.702 -22.526,84.702C-22.526,84.702 -23.211,84.663 -23.207,84.663C-23.207,84.663 -24.525,84.583 -24.518,84.584C-24.518,84.584 -25.771,84.499 -25.763,84.499C-25.763,84.499 -26.955,84.409 -26.948,84.41C-26.948,84.41 -28.083,84.317 -28.076,84.317C-28.076,84.317 -29.16,84.22 -29.15,84.221C-29.15,84.221 -30.184,84.119 -30.176,84.12C-30.176,84.12 -31.165,84.015 -31.156,84.016C-31.156,84.016 -32.102,83.907 -32.092,83.908C-32.092,83.908 -32.998,83.795 -32.988,83.797C-32.988,83.797 -33.856,83.68 -33.847,83.681C-33.847,83.681 -34.681,83.561 -34.669,83.563C-34.669,83.563 -35.469,83.439 -35.459,83.44C-35.459,83.44 -36.228,83.313 -36.216,83.315C-36.216,83.315 -36.955,83.184 -36.942,83.187C-36.942,83.187 -37.653,83.052 -37.642,83.054C-37.642,83.054 -38.328,82.916 -38.314,82.919C-38.314,82.919 -38.974,82.777 -38.962,82.779C-38.962,82.779 -39.599,82.634 -39.585,82.638C-39.585,82.638 -40.199,82.489 -40.185,82.492C-40.185,82.492 -40.779,82.339 -40.763,82.343C-40.763,82.343 -41.336,82.186 -41.322,82.19C-41.322,82.19 -41.876,82.03 -41.86,82.035C-41.86,82.035 -42.395,81.871 -42.381,81.875L-42.887,81.713L-43.845,81.376L-44.738,81.027L-45.574,80.664L-46.358,80.286L-47.097,79.892L-47.792,79.484L-48.446,79.058L-49.066,78.614L-49.652,78.152L-50.209,77.67L-50.737,77.165L-51.241,76.638L-51.721,76.084L-52.179,75.505L-52.618,74.895L-53.038,74.255L-53.441,73.58L-53.827,72.868L-54.199,72.117L-54.554,71.323L-54.897,70.482L-55.226,69.592L-55.542,68.649L-55.845,67.646L-56.136,66.588C-56.136,66.588 -56.281,66.018 -56.278,66.031C-56.278,66.031 -56.419,65.444 -56.416,65.456C-56.416,65.456 -56.554,64.85 -56.552,64.859C-56.552,64.859 -56.688,64.235 -56.685,64.247C-56.685,64.247 -56.817,63.603 -56.815,63.613C-56.815,63.613 -56.945,62.947 -56.943,62.958C-56.943,62.958 -57.069,62.271 -57.068,62.279C-57.068,62.279 -57.192,61.569 -57.19,61.58C-57.19,61.58 -57.31,60.846 -57.309,60.854C-57.309,60.854 -57.427,60.094 -57.425,60.102C-57.425,60.102 -57.541,59.315 -57.54,59.325C-57.54,59.325 -57.652,58.511 -57.651,58.518C-57.651,58.518 -57.761,57.674 -57.76,57.682C-57.76,57.682 -57.867,56.806 -57.866,56.814C-57.866,56.814 -57.97,55.906 -57.97,55.912C-57.97,55.912 -58.072,54.969 -58.071,54.976C-58.071,54.976 -58.17,53.996 -58.169,54.003C-58.169,54.003 -58.265,52.984 -58.265,52.99C-58.265,52.99 -58.358,51.929 -58.357,51.935C-58.357,51.935 -58.448,50.831 -58.448,50.837C-58.448,50.837 -58.536,49.685 -58.535,49.69C-58.535,49.69 -58.62,48.489 -58.62,48.495C-58.62,48.495 -58.702,47.241 -58.702,47.245C-58.702,47.245 -58.782,45.934 -58.781,45.94C-58.781,45.94 -58.857,44.569 -58.857,44.573C-58.857,44.573 -58.931,43.137 -58.931,43.141C-58.931,43.141 -58.966,42.397 -58.966,42.398C-58.966,42.398 -59.001,41.637 -59.001,41.64C-59.001,41.64 -59.035,40.859 -59.035,40.861C-59.035,40.861 -59.068,40.062 -59.067,40.063C-59.067,40.063 -59.1,39.243 -59.1,39.247C-59.1,39.247 -59.131,38.406 -59.131,38.407C-59.131,38.407 -59.162,37.545 -59.162,37.547C-59.162,37.547 -59.192,36.663 -59.192,36.665C-59.192,36.665 -59.221,35.757 -59.221,35.757C-59.221,35.757 -59.25,34.824 -59.25,34.827C-59.25,34.827 -59.277,33.87 -59.277,33.872C-59.277,33.872 -59.303,32.888 -59.303,32.889C-59.303,32.889 -59.329,31.878 -59.329,31.881C-59.329,31.881 -59.353,30.841 -59.353,30.841C-59.353,30.841 -59.377,29.772 -59.377,29.775C-59.377,29.775 -59.399,28.674 -59.399,28.674C-59.399,28.674 -59.421,27.542 -59.421,27.545C-59.421,27.545 -59.441,26.378 -59.441,26.379C-59.441,26.379 -59.46,25.177 -59.46,25.178C-59.46,25.178 -59.478,23.938 -59.478,23.94C-59.478,23.94 -59.495,22.662 -59.495,22.663C-59.495,22.663 -59.511,21.345 -59.511,21.346C-59.511,21.346 -59.526,19.984 -59.526,19.986C-59.526,19.986 -59.539,18.58 -59.539,18.581C-59.539,18.581 -59.551,17.129 -59.551,17.13C-59.551,17.13 -59.561,15.627 -59.561,15.628C-59.561,15.628 -59.57,14.074 -59.57,14.075C-59.57,14.075 -59.578,12.467 -59.578,12.468C-59.578,12.468 -59.584,10.802 -59.584,10.804C-59.584,10.804 -59.588,9.077 -59.588,9.077C-59.588,9.077 -59.591,7.286 -59.591,7.287C-59.591,7.287 -59.592,6.367 -59.592,6.368L-59.592,5.43C-59.592,5.43 -59.592,4.492 -59.592,4.493C-59.592,4.493 -59.591,3.572 -59.591,3.573C-59.591,3.573 -59.588,1.783 -59.588,1.783C-59.588,1.783 -59.584,0.056 -59.584,0.058C-59.584,0.058 -59.578,-1.608 -59.578,-1.607C-59.578,-1.607 -59.57,-3.216 -59.57,-3.215C-59.57,-3.215 -59.561,-4.769 -59.561,-4.768C-59.561,-4.768 -59.551,-6.27 -59.551,-6.269C-59.551,-6.269 -59.539,-7.722 -59.539,-7.721C-59.539,-7.721 -59.526,-9.127 -59.526,-9.125C-59.526,-9.125 -59.511,-10.486 -59.511,-10.485C-59.511,-10.485 -59.495,-11.804 -59.495,-11.803C-59.495,-11.803 -59.478,-13.081 -59.478,-13.079C-59.478,-13.079 -59.46,-14.318 -59.46,-14.317C-59.46,-14.317 -59.441,-15.519 -59.441,-15.518C-59.441,-15.518 -59.421,-16.685 -59.421,-16.682C-59.421,-16.682 -59.399,-17.815 -59.399,-17.815C-59.399,-17.815 -59.377,-18.915 -59.377,-18.912C-59.377,-18.912 -59.353,-19.982 -59.353,-19.982C-59.353,-19.982 -59.329,-21.022 -59.329,-21.019C-59.329,-21.019 -59.303,-22.03 -59.303,-22.029C-59.303,-22.029 -59.277,-23.012 -59.277,-23.01C-59.277,-23.01 -59.25,-23.968 -59.25,-23.965C-59.25,-23.965 -59.221,-24.897 -59.221,-24.897C-59.221,-24.897 -59.192,-25.805 -59.192,-25.803C-59.192,-25.803 -59.162,-26.688 -59.162,-26.686C-59.162,-26.686 -59.131,-27.548 -59.131,-27.547C-59.131,-27.547 -59.1,-28.387 -59.1,-28.383C-59.1,-28.383 -59.067,-29.203 -59.068,-29.202C-59.068,-29.202 -59.035,-30.002 -59.035,-30C-59.035,-30 -59.001,-30.78 -59.001,-30.777C-59.001,-30.777 -58.966,-31.539 -58.966,-31.538C-58.966,-31.538 -58.931,-32.282 -58.931,-32.278C-58.931,-32.278 -58.857,-33.714 -58.857,-33.71C-58.857,-33.71 -58.781,-35.081 -58.782,-35.075C-58.782,-35.075 -58.702,-36.385 -58.702,-36.381C-58.702,-36.381 -58.62,-37.636 -58.62,-37.63C-58.62,-37.63 -58.535,-38.831 -58.536,-38.826C-58.536,-38.826 -58.448,-39.977 -58.448,-39.971C-58.448,-39.971 -58.357,-41.076 -58.358,-41.07C-58.358,-41.07 -58.265,-42.13 -58.265,-42.124C-58.265,-42.124 -58.169,-43.143 -58.17,-43.136C-58.17,-43.136 -58.071,-44.116 -58.072,-44.109C-58.072,-44.109 -57.97,-45.053 -57.97,-45.047C-57.97,-45.047 -57.866,-45.955 -57.867,-45.947C-57.867,-45.947 -57.76,-46.822 -57.761,-46.814C-57.761,-46.814 -57.651,-47.658 -57.652,-47.651C-57.652,-47.651 -57.54,-48.466 -57.542,-48.456C-57.542,-48.456 -57.426,-49.242 -57.427,-49.234C-57.427,-49.234 -57.309,-49.994 -57.31,-49.986C-57.31,-49.986 -57.19,-50.72 -57.192,-50.71C-57.192,-50.71 -57.068,-51.421 -57.069,-51.412C-57.069,-51.412 -56.943,-52.099 -56.945,-52.087C-56.945,-52.087 -56.815,-52.752 -56.817,-52.743C-56.817,-52.743 -56.685,-53.387 -56.688,-53.375C-56.688,-53.375 -56.552,-54 -56.554,-53.99C-56.554,-53.99 -56.416,-54.595 -56.419,-54.584C-56.419,-54.584 -56.278,-55.172 -56.281,-55.158C-56.281,-55.158 -56.136,-55.727 -56.141,-55.709L-55.845,-56.786L-55.541,-57.789L-55.226,-58.732L-54.897,-59.622L-54.554,-60.463L-54.199,-61.257L-53.827,-62.008L-53.441,-62.721L-53.038,-63.395L-52.618,-64.036L-52.179,-64.645L-51.72,-65.226L-51.241,-65.778L-50.738,-66.305L-50.208,-66.81L-49.652,-67.293L-49.066,-67.755L-48.447,-68.198L-47.792,-68.624L-47.096,-69.033L-46.358,-69.427L-45.574,-69.805L-44.738,-70.168L-43.845,-70.516L-42.898,-70.849C-42.898,-70.849 -42.379,-71.017 -42.395,-71.012C-42.395,-71.012 -41.86,-71.176 -41.876,-71.171C-41.876,-71.171 -41.322,-71.331 -41.338,-71.327C-41.338,-71.327 -40.765,-71.483 -40.779,-71.479C-40.779,-71.479 -40.185,-71.632 -40.199,-71.629C-40.199,-71.629 -39.585,-71.778 -39.598,-71.775C-39.598,-71.775 -38.961,-71.921 -38.976,-71.917C-38.976,-71.917 -38.316,-72.058 -38.327,-72.056C-38.327,-72.056 -37.641,-72.195 -37.655,-72.192C-37.655,-72.192 -36.944,-72.326 -36.955,-72.324C-36.955,-72.324 -36.216,-72.455 -36.227,-72.453C-36.227,-72.453 -35.458,-72.581 -35.469,-72.58C-35.469,-72.58 -34.669,-72.704 -34.681,-72.702C-34.681,-72.702 -33.847,-72.822 -33.857,-72.82C-33.857,-72.82 -32.989,-72.936 -32.998,-72.935C-32.998,-72.935 -32.092,-73.048 -32.102,-73.047C-32.102,-73.047 -31.156,-73.156 -31.164,-73.155C-31.164,-73.155 -30.175,-73.261 -30.185,-73.26C-30.185,-73.26 -29.151,-73.361 -29.159,-73.36C-29.159,-73.36 -28.075,-73.458 -28.083,-73.458C-28.083,-73.458 -26.948,-73.551 -26.956,-73.55C-26.956,-73.55 -25.764,-73.639 -25.771,-73.639C-25.771,-73.639 -24.518,-73.724 -24.525,-73.723C-24.525,-73.723 -23.207,-73.804 -23.213,-73.804C-23.213,-73.804 -22.528,-73.842 -22.529,-73.842C-22.529,-73.842 -21.826,-73.88 -21.831,-73.879C-21.831,-73.879 -21.109,-73.915 -21.112,-73.915C-21.112,-73.915 -20.37,-73.95 -20.372,-73.95C-20.372,-73.95 -19.609,-73.984 -19.613,-73.984C-19.613,-73.984 -18.829,-74.016 -18.832,-74.016C-18.832,-74.016 -18.025,-74.047 -18.027,-74.047C-18.027,-74.047 -17.197,-74.077 -17.201,-74.077C-17.201,-74.077 -16.346,-74.105 -16.348,-74.105C-16.348,-74.105 -15.468,-74.132 -15.47,-74.132C-15.47,-74.132 -14.563,-74.158 -14.566,-74.157C-14.566,-74.157 -13.631,-74.181 -13.633,-74.181C-13.633,-74.181 -12.669,-74.204 -12.673,-74.204C-12.673,-74.204 -11.678,-74.224 -11.679,-74.224C-11.679,-74.224 -10.652,-74.244 -10.655,-74.244C-10.655,-74.244 -9.595,-74.261 -9.597,-74.261C-9.597,-74.261 -8.501,-74.277 -8.503,-74.277C-8.503,-74.277 -7.369,-74.291 -7.371,-74.291C-7.371,-74.291 -6.199,-74.303 -6.201,-74.303C-6.201,-74.303 -4.987,-74.313 -4.989,-74.313C-4.989,-74.313 -3.733,-74.321 -3.735,-74.321C-3.735,-74.321 -2.432,-74.327 -2.435,-74.327C-2.435,-74.327 -1.084,-74.33 -1.085,-74.33L0.316,-74.332L1.716,-74.33C1.716,-74.33 3.067,-74.327 3.064,-74.327C3.064,-74.327 4.366,-74.321 4.364,-74.321C4.364,-74.321 5.621,-74.313 5.619,-74.313C5.619,-74.313 6.833,-74.303 6.831,-74.303C6.831,-74.303 8.003,-74.291 8.001,-74.291C8.001,-74.291 9.134,-74.277 9.132,-74.277C9.132,-74.277 10.228,-74.261 10.226,-74.261C10.226,-74.261 11.287,-74.244 11.284,-74.244C11.284,-74.244 12.311,-74.224 12.31,-74.224C12.31,-74.224 13.305,-74.204 13.301,-74.204C13.301,-74.204 14.265,-74.181 14.263,-74.181C14.263,-74.181 15.198,-74.157 15.195,-74.158C15.195,-74.158 16.102,-74.132 16.1,-74.132C16.1,-74.132 16.98,-74.105 16.978,-74.105C16.978,-74.105 17.832,-74.077 17.828,-74.077C17.828,-74.077 18.659,-74.047 18.657,-74.047C18.657,-74.047 19.463,-74.016 19.46,-74.016C19.46,-74.016 20.245,-73.984 20.241,-73.984C20.241,-73.984 21.004,-73.95 21.002,-73.95C21.002,-73.95 21.744,-73.915 21.741,-73.915C21.741,-73.915 22.463,-73.879 22.458,-73.88C22.458,-73.88 23.161,-73.842 23.16,-73.842C23.16,-73.842 23.845,-73.804 23.839,-73.804C23.839,-73.804 25.157,-73.723 25.15,-73.724C25.15,-73.724 26.402,-73.639 26.395,-73.639C26.395,-73.639 27.587,-73.55 27.579,-73.551C27.579,-73.551 28.715,-73.458 28.706,-73.458C28.706,-73.458 29.789,-73.36 29.782,-73.361C29.782,-73.361 30.817,-73.26 30.807,-73.261C30.807,-73.261 31.795,-73.155 31.787,-73.156C31.787,-73.156 32.734,-73.047 32.724,-73.048C32.724,-73.048 33.63,-72.935 33.621,-72.936C33.621,-72.936 34.489,-72.82 34.478,-72.822C34.478,-72.822 35.311,-72.702 35.301,-72.703C35.301,-72.703 36.102,-72.579 36.09,-72.581C36.09,-72.581 36.858,-72.453 36.847,-72.455C36.847,-72.455 37.587,-72.324 37.576,-72.326C37.576,-72.326 38.287,-72.192 38.272,-72.195C38.272,-72.195 38.957,-72.056 38.947,-72.058C38.947,-72.058 39.608,-71.917 39.593,-71.921C39.593,-71.921 40.23,-71.775 40.217,-71.778C40.217,-71.778 40.831,-71.629 40.816,-71.632C40.816,-71.632 41.409,-71.479 41.396,-71.483C41.396,-71.483 41.969,-71.327 41.953,-71.331C41.953,-71.331 42.507,-71.171 42.491,-71.176C42.491,-71.176 43.027,-71.012 43.011,-71.017C43.011,-71.017 43.53,-70.849 43.506,-70.857L44.477,-70.516L45.369,-70.168L46.205,-69.805L46.991,-69.427L47.728,-69.034L48.423,-68.624L49.079,-68.198L49.698,-67.755L50.284,-67.293L50.84,-66.81L51.37,-66.305L51.873,-65.778L52.352,-65.226L52.811,-64.645L53.25,-64.036L53.669,-63.395L54.072,-62.721L54.459,-62.008L54.83,-61.257L55.187,-60.462L55.528,-59.622L55.857,-58.733L56.174,-57.788L56.477,-56.786L56.768,-55.729C56.768,-55.729 56.912,-55.16 56.909,-55.171C56.909,-55.171 57.051,-54.583 57.048,-54.595C57.048,-54.595 57.186,-53.99 57.184,-54C57.184,-54 57.32,-53.375 57.317,-53.387C57.317,-53.387 57.449,-52.743 57.447,-52.754C57.447,-52.754 57.576,-52.089 57.575,-52.098C57.575,-52.098 57.702,-51.411 57.699,-51.422C57.699,-51.422 57.822,-50.711 57.821,-50.719C57.821,-50.719 57.942,-49.985 57.941,-49.994C57.941,-49.994 58.059,-49.234 58.057,-49.243C58.057,-49.243 58.172,-48.457 58.171,-48.465C58.171,-48.465 58.284,-47.65 58.283,-47.658C58.283,-47.658 58.393,-46.814 58.392,-46.822C58.392,-46.822 58.499,-45.947 58.498,-45.955C58.498,-45.955 58.602,-45.047 58.601,-45.054C58.601,-45.054 58.702,-44.11 58.702,-44.116C58.702,-44.116 58.801,-43.136 58.8,-43.143C58.8,-43.143 58.896,-42.124 58.896,-42.129C58.896,-42.129 58.99,-41.069 58.989,-41.076C58.989,-41.076 59.08,-39.971 59.08,-39.978C59.08,-39.978 59.167,-38.827 59.166,-38.831C59.166,-38.831 59.252,-37.63 59.252,-37.636C59.252,-37.636 59.334,-36.381 59.333,-36.386C59.333,-36.386 59.412,-35.076 59.412,-35.08C59.412,-35.08 59.489,-33.709 59.489,-33.714C59.489,-33.714 59.562,-32.278 59.562,-32.281C59.562,-32.281 59.598,-31.537 59.598,-31.539C59.598,-31.539 59.633,-30.777 59.633,-30.78C59.633,-30.78 59.667,-30 59.667,-30.002C59.667,-30.002 59.7,-29.202 59.699,-29.203C59.699,-29.203 59.732,-28.383 59.732,-28.387C59.732,-28.387 59.763,-27.547 59.763,-27.548C59.763,-27.548 59.794,-26.686 59.794,-26.688C59.794,-26.688 59.824,-25.803 59.824,-25.805C59.824,-25.805 59.853,-24.897 59.853,-24.899C59.853,-24.899 59.881,-23.967 59.881,-23.967C59.881,-23.967 59.909,-23.009 59.909,-23.012C59.909,-23.012 59.935,-22.029 59.935,-22.031C59.935,-22.031 59.96,-21.02 59.96,-21.021C59.96,-21.021 59.985,-19.981 59.985,-19.983C59.985,-19.983 60.008,-18.913 60.008,-18.914C60.008,-18.914 60.031,-17.814 60.031,-17.816C60.031,-17.816 60.052,-16.683 60.052,-16.684C60.052,-16.684 60.073,-15.517 60.073,-15.519C60.073,-15.519 60.092,-14.317 60.092,-14.318C60.092,-14.318 60.11,-13.079 60.11,-13.081C60.11,-13.081 60.127,-11.803 60.127,-11.804C60.127,-11.804 60.143,-10.485 60.143,-10.487C60.143,-10.487 60.157,-9.126 60.157,-9.126C60.157,-9.126 60.171,-7.72 60.171,-7.722C60.171,-7.722 60.183,-6.269 60.183,-6.27C60.183,-6.27 60.193,-4.768 60.193,-4.769C60.193,-4.769 60.202,-3.215 60.202,-3.216C60.202,-3.216 60.21,-1.607 60.21,-1.608C60.21,-1.608 60.216,0.058 60.216,0.056C60.216,0.056 60.22,1.783 60.22,1.783C60.22,1.783 60.223,3.573 60.223,3.572C60.223,3.572 60.224,4.493 60.224,4.492C60.224,4.492 60.224,5.43 60.224,5.43C60.224,5.43 60.224,6.368 60.224,6.367C60.224,6.367 60.223,7.287 60.223,7.286C60.223,7.286 60.22,9.077 60.22,9.077C60.22,9.077 60.216,10.804 60.216,10.802C60.216,10.802 60.21,12.468 60.21,12.467C60.21,12.467 60.202,14.075 60.202,14.074C60.202,14.074 60.193,15.628 60.193,15.627C60.193,15.627 60.183,17.13 60.183,17.129C60.183,17.129 60.171,18.581 60.171,18.579C60.171,18.579 60.157,19.985 60.157,19.985C60.157,19.985 60.143,21.347 60.143,21.345C60.143,21.345 60.127,22.663 60.127,22.662C60.127,22.662 60.11,23.94 60.11,23.938C60.11,23.938 60.092,25.178 60.092,25.177C60.092,25.177 60.073,26.379 60.073,26.377C60.073,26.377 60.052,27.544 60.052,27.543C60.052,27.543 60.031,28.675 60.031,28.673C60.031,28.673 60.008,29.774 60.008,29.773C60.008,29.773 59.985,30.842 59.985,30.84C59.985,30.84 59.96,31.88 59.96,31.879C59.96,31.879 59.935,32.89 59.935,32.888C59.935,32.888 59.909,33.872 59.909,33.869C59.909,33.869 59.881,34.826 59.881,34.826C59.881,34.826 59.853,35.759 59.853,35.757C59.853,35.757 59.824,36.665 59.824,36.663C59.824,36.663 59.794,37.547 59.794,37.545C59.794,37.545 59.763,38.407 59.763,38.406C59.763,38.406 59.732,39.247 59.732,39.243C59.732,39.243 59.699,40.063 59.7,40.062C59.7,40.062 59.667,40.861 59.667,40.859C59.667,40.859 59.633,41.64 59.633,41.637C59.633,41.637 59.598,42.398 59.598,42.396C59.598,42.396 59.562,43.14 59.562,43.137C59.562,43.137 59.489,44.573 59.489,44.568C59.489,44.568 59.412,45.939 59.412,45.935C59.412,45.935 59.333,47.246 59.334,47.241C59.334,47.241 59.252,48.495 59.252,48.489C59.252,48.489 59.166,49.69 59.167,49.686C59.167,49.686 59.08,50.838 59.08,50.831C59.08,50.831 58.989,51.935 58.99,51.928C58.99,51.928 58.896,52.989 58.896,52.984C58.896,52.984 58.8,54.003 58.801,53.996C58.801,53.996 58.702,54.976 58.702,54.97C58.702,54.97 58.601,55.913 58.602,55.906C58.602,55.906 58.498,56.814 58.499,56.806C58.499,56.806 58.392,57.682 58.393,57.674C58.393,57.674 58.283,58.518 58.284,58.509C58.284,58.509 58.171,59.323 58.172,59.316C58.172,59.316 58.057,60.103 58.059,60.094C58.059,60.094 57.941,60.854 57.942,60.845C57.942,60.845 57.821,61.579 57.823,61.571C57.823,61.571 57.7,62.281 57.702,62.27C57.702,62.27 57.575,62.957 57.576,62.948C57.576,62.948 57.447,63.614 57.449,63.603C57.449,63.603 57.317,64.247 57.32,64.235C57.32,64.235 57.184,64.859 57.186,64.85C57.186,64.85 57.048,65.456 57.051,65.442C57.051,65.442 56.909,66.029 56.912,66.019C56.912,66.019 56.768,66.589 56.773,66.569L56.477,67.646L56.174,68.648L55.857,69.592L55.528,70.482L55.187,71.322L54.83,72.117L54.459,72.868L54.072,73.58L53.669,74.255L53.25,74.895L52.811,75.505L52.353,76.084L51.873,76.638L51.369,77.165L50.841,77.67L50.284,78.152L49.698,78.614L49.079,79.057L48.423,79.484L47.728,79.892L46.991,80.286L46.205,80.664L45.368,81.027L44.476,81.376L43.519,81.713Z" style="fill:rgb(100,100,100);"/>
            </g>
        </g>
    </g>
</svg>
